<?xml version="1.0" encoding="utf-8"?>
<!-- Generator: Adobe Illustrator 23.0.5, SVG Export Plug-In . SVG Version: 6.00 Build 0)  -->
<svg version="1.1" id="Capa_1" xmlns="http://www.w3.org/2000/svg" xmlns:xlink="http://www.w3.org/1999/xlink" x="0px" y="0px"
	 viewBox="0 0 16 16" style="enable-background:new 0 0 16 16;" xml:space="preserve">
<style type="text/css">
	.st0{fill:#DB0000;}
</style>
<path class="st0" d="M2.3,9.5c1.3,0,2.3-1,2.3-2.3C4.5,6,3.5,5,2.3,5c0,0,0,0,0,0C1,5,0,6,0,7.3S1,9.5,2.3,9.5L2.3,9.5z M11.7,4.5
	c1.3,0,2.3-1,2.3-2.3C14,1,13,0,11.7,0c0,0,0,0,0,0c-1.3,0-2.3,1-2.3,2.3C9.5,3.5,10.5,4.5,11.7,4.5z M7.4,13.1
	c-1.6-0.3-3-1.4-3.8-2.9c-0.6,0.3-1.3,0.4-1.9,0.2c0.9,2.3,2.9,4,5.3,4.5c0.5,0.1,1.1,0.2,1.6,0.2C8.2,14.6,8,13.9,8,13.2
	C7.8,13.2,7.6,13.1,7.4,13.1z M11.2,15.4c1.3,0,2.3-1,2.3-2.3c0-1.3-1-2.3-2.3-2.3c0,0,0,0,0,0c-1.3,0-2.3,1-2.3,2.3
	C9,14.4,10,15.4,11.2,15.4z M14.4,12.3c2-2.5,2.1-6,0.4-8.7c-0.3,0.6-0.7,1.1-1.3,1.5c0.9,1.7,0.9,3.9-0.2,5.5
	C13.8,11,14.2,11.6,14.4,12.3z M2.1,4C2.8,4,3.4,4.1,4,4.5C5,3,6.7,2.1,8.5,2.1c0-0.7,0.3-1.3,0.7-1.8C6.3,0,3.5,1.5,2.1,4z"/>
</svg>
